<?xml version="1.0" encoding="UTF-8"?>
<svg width="44px" height="44px" viewBox="0 0 44 44" version="1.1" xmlns="http://www.w3.org/2000/svg" xmlns:xlink="http://www.w3.org/1999/xlink">
    <!-- Generator: sketchtool 63.1 (101010) - https://sketch.com -->
    <title>77E699CF-EC3B-4B68-AD97-921C43B867A7</title>
    <desc>Created with sketchtool.</desc>
    <g id="Page-1" stroke="none" stroke-width="1" fill="none" fill-rule="evenodd">
        <g id="Water-Level-&amp;-Weather-(1)" transform="translate(-138.000000, -395.000000)">
            <g id="Cloudly---Selected" transform="translate(138.000000, 395.000000)">
                <g id="Group-8">
                    <path d="M31.908,43.908 L12,43.908 C5.373,43.908 7.10542736e-15,38.535 7.10542736e-15,31.908 L7.10542736e-15,12 C7.10542736e-15,5.373 5.373,-4.97379915e-14 12,-4.97379915e-14 L31.908,-4.97379915e-14 C38.535,-4.97379915e-14 43.908,5.373 43.908,12 L43.908,31.908 C43.908,38.535 38.535,43.908 31.908,43.908 Z" id="Stroke-5" fill="#1E3664"></path>
                    <path d="M32.9705,22.761 C32.9705,25.461 30.7905,27.651 28.0905,27.651 C26.6705,27.651 25.3905,27.041 24.5005,26.071 C23.2815,27.761 21.2815,28.861 19.0315,28.861 C17.1205,28.861 15.3905,28.071 14.1605,26.791 C13.4915,27.321 12.6405,27.651 11.7205,27.651 C9.6115,27.651 7.8905,25.931 7.8905,23.821 C7.8905,21.701 9.6115,19.981 11.7205,19.981 C12.0105,19.981 12.2905,20.011 12.5605,20.081 C13.4205,17.321 15.9915,15.321 19.0315,15.321 C21.6405,15.321 23.9105,16.801 25.0315,18.961 C25.8705,18.281 26.9305,17.871 28.0905,17.871 C30.7905,17.871 32.9705,20.061 32.9705,22.761" id="Fill-51" fill="#FFFFFF"></path>
                    <path d="M32.9705,22.761 C32.9705,25.461 30.7905,27.651 28.0905,27.651 C26.6705,27.651 25.3905,27.041 24.5005,26.071 C23.2815,27.761 21.2815,28.861 19.0315,28.861 C17.1205,28.861 15.3905,28.071 14.1605,26.791 C13.4915,27.321 12.6405,27.651 11.7205,27.651 C9.6115,27.651 7.8905,25.931 7.8905,23.821 C7.8905,21.701 9.6115,19.981 11.7205,19.981 C12.0105,19.981 12.2905,20.011 12.5605,20.081 C13.4205,17.321 15.9915,15.321 19.0315,15.321 C21.6405,15.321 23.9105,16.801 25.0315,18.961 C25.8705,18.281 26.9305,17.871 28.0905,17.871 C30.7905,17.871 32.9705,20.061 32.9705,22.761 Z" id="Stroke-53" stroke="#1E3664"></path>
                    <path d="M36.0174,26.7517 C36.0174,28.9517 34.2404,30.7357 32.0404,30.7357 C30.8834,30.7357 29.8404,30.2387 29.1154,29.4487 C28.1214,30.8257 26.4914,31.7217 24.6584,31.7217 C23.1014,31.7217 21.6924,31.0787 20.6894,30.0357 C20.1434,30.4667 19.4514,30.7357 18.7024,30.7357 C16.9824,30.7357 15.5804,29.3347 15.5804,27.6147 C15.5804,25.8877 16.9824,24.4857 18.7024,24.4857 C18.9374,24.4857 19.1654,24.5107 19.3854,24.5677 C20.0864,22.3187 22.1804,20.6897 24.6584,20.6897 C26.7854,20.6897 28.6344,21.8947 29.5464,23.6547 C30.2314,23.1007 31.0954,22.7667 32.0404,22.7667 C34.2404,22.7667 36.0174,24.5517 36.0174,26.7517" id="Fill-55" fill="#FFFFFF"></path>
                    <path d="M36.0174,26.7517 C36.0174,28.9517 34.2404,30.7357 32.0404,30.7357 C30.8834,30.7357 29.8404,30.2387 29.1154,29.4487 C28.1214,30.8257 26.4914,31.7217 24.6584,31.7217 C23.1014,31.7217 21.6924,31.0787 20.6894,30.0357 C20.1434,30.4667 19.4514,30.7357 18.7024,30.7357 C16.9824,30.7357 15.5804,29.3347 15.5804,27.6147 C15.5804,25.8877 16.9824,24.4857 18.7024,24.4857 C18.9374,24.4857 19.1654,24.5107 19.3854,24.5677 C20.0864,22.3187 22.1804,20.6897 24.6584,20.6897 C26.7854,20.6897 28.6344,21.8947 29.5464,23.6547 C30.2314,23.1007 31.0954,22.7667 32.0404,22.7667 C34.2404,22.7667 36.0174,24.5517 36.0174,26.7517 Z" id="Stroke-57" stroke="#1E3664"></path>
                </g>
            </g>
        </g>
    </g>
</svg>