<?xml version="1.0" encoding="UTF-8"?>
<svg width="46px" height="30px" viewBox="0 0 46 30" version="1.1" xmlns="http://www.w3.org/2000/svg" xmlns:xlink="http://www.w3.org/1999/xlink">
    <!-- Generator: sketchtool 63.1 (101010) - https://sketch.com -->
    <title>1F894154-F407-4601-879F-B036922B7533</title>
    <desc>Created with sketchtool.</desc>
    <g id="Page-1" stroke="none" stroke-width="1" fill="none" fill-rule="evenodd">
        <g id="Flora-&amp;-Fauna" transform="translate(-19.000000, -359.000000)">
            <g id="Fauna" transform="translate(20.000000, 360.000000)">
                <path d="M38,11.995671 C38,12.5497835 37.1032505,13 36,13 C34.8948375,13 34,12.5497835 34,11.995671 C34,11.4415584 34.8948375,11 36,11 C37.1032505,11 38,11.4415584 38,11.995671" id="Fill-1" fill="#1E3664"></path>
                <path d="M44,14 C44,14 37.7086413,25.6633094 25.1380811,25.6633094 C23.0136078,25.6633094 20.6839815,25.2705036 18.3953858,24.5956835 L12.3775644,28 L11.227188,21.2719424 C10.5813359,20.818705 9.95220004,20.3453237 9.40360572,19.8517986 L0,25.6633094 L0,2.33669065 L9.40360572,8.15827338 C11.2666989,6.46618705 13.8029979,5.05611511 16.4897423,4.03884892 L16.4897423,0 L19.2448712,0 C20.1080334,0 26.5513573,0.110791367 29.8672377,2.92086331 C39.2708434,5.27769784 44,14 44,14 Z" id="Stroke-3" stroke="#1E3664"></path>
                <path d="M28.8738793,14 C28.8738793,17.6245734 29.6823072,20.8293515 32,23 C28.9949193,21.105802 27,17.7986348 27,14 C27,10.2013652 28.9949193,6.89419795 32,5 C29.6823072,7.17064846 28.8738793,10.3754266 28.8738793,14" id="Fill-5" fill="#1E3664"></path>
            </g>
        </g>
    </g>
</svg>