<?xml version="1.0" encoding="UTF-8"?>
<svg width="45px" height="44px" viewBox="0 0 45 44" version="1.1" xmlns="http://www.w3.org/2000/svg" xmlns:xlink="http://www.w3.org/1999/xlink">
    <!-- Generator: sketchtool 63.1 (101010) - https://sketch.com -->
    <title>806A699A-2FC6-4889-AFA3-337EE4602B1B</title>
    <desc>Created with sketchtool.</desc>
    <defs>
        <path d="M12.332,0.592 C5.705,0.592 0.332,5.965 0.332,12.592 L0.332,12.592 L0.332,32.5 C0.332,39.128 5.705,44.501 12.332,44.501 L12.332,44.501 L32.24,44.501 C38.868,44.501 44.241,39.128 44.241,32.5 L44.241,32.5 L44.241,12.592 C44.241,5.965 38.868,0.592 32.24,0.592 L32.24,0.592 L12.332,0.592 Z" id="path-1"></path>
        <path d="M12.332,0.592 C5.705,0.592 0.332,5.965 0.332,12.592 L0.332,12.592 L0.332,32.5 C0.332,39.128 5.705,44.501 12.332,44.501 L12.332,44.501 L32.24,44.501 C38.868,44.501 44.241,39.128 44.241,32.5 L44.241,32.5 L44.241,12.592 C44.241,5.965 38.868,0.592 32.24,0.592 L32.24,0.592 L12.332,0.592 Z" id="path-3"></path>
        <path d="M12.332,0.592 C5.705,0.592 0.332,5.965 0.332,12.592 L0.332,12.592 L0.332,32.5 C0.332,39.128 5.705,44.501 12.332,44.501 L12.332,44.501 L32.24,44.501 C38.868,44.501 44.241,39.128 44.241,32.5 L44.241,32.5 L44.241,12.592 C44.241,5.965 38.868,0.592 32.24,0.592 L32.24,0.592 L12.332,0.592 Z" id="path-5"></path>
        <path d="M12.332,0.592 C5.705,0.592 0.332,5.965 0.332,12.592 L0.332,12.592 L0.332,32.5 C0.332,39.128 5.705,44.501 12.332,44.501 L12.332,44.501 L32.24,44.501 C38.868,44.501 44.241,39.128 44.241,32.5 L44.241,32.5 L44.241,12.592 C44.241,5.965 38.868,0.592 32.24,0.592 L32.24,0.592 L12.332,0.592 Z" id="path-7"></path>
        <path d="M12.332,0.592 C5.705,0.592 0.332,5.965 0.332,12.592 L0.332,12.592 L0.332,32.5 C0.332,39.128 5.705,44.501 12.332,44.501 L12.332,44.501 L32.24,44.501 C38.868,44.501 44.241,39.128 44.241,32.5 L44.241,32.5 L44.241,12.592 C44.241,5.965 38.868,0.592 32.24,0.592 L32.24,0.592 L12.332,0.592 Z" id="path-9"></path>
        <path d="M12.332,0.592 C5.705,0.592 0.332,5.965 0.332,12.592 L0.332,12.592 L0.332,32.5 C0.332,39.128 5.705,44.501 12.332,44.501 L12.332,44.501 L32.24,44.501 C38.868,44.501 44.241,39.128 44.241,32.5 L44.241,32.5 L44.241,12.592 C44.241,5.965 38.868,0.592 32.24,0.592 L32.24,0.592 L12.332,0.592 Z" id="path-11"></path>
    </defs>
    <g id="Page-1" stroke="none" stroke-width="1" fill="none" fill-rule="evenodd">
        <g id="Water-Level-&amp;-Weather-(1)" transform="translate(-253.000000, -265.000000)">
            <g id="Flooded---selected" transform="translate(253.000000, 265.000000)">
                <path d="M32.908,43.908 L13,43.908 C6.373,43.908 1,38.535 1,31.908 L1,12 C1,5.373 6.373,-4.97379915e-14 13,-4.97379915e-14 L32.908,-4.97379915e-14 C39.535,-4.97379915e-14 44.908,5.373 44.908,12 L44.908,31.908 C44.908,38.535 39.535,43.908 32.908,43.908 Z" id="Stroke-7" fill="#1E3664"></path>
                <g id="Group-48">
                    <g id="Group-32">
                        <mask id="mask-2" fill="white">
                            <use xlink:href="#path-1"></use>
                        </mask>
                        <g id="Clip-31"></g>
                        <path d="M44.8652,42.3771 C43.1842,42.3771 42.3492,41.2031 41.6132,40.1671 C40.9292,39.2071 40.3402,38.3771 39.1762,38.3771 C38.0112,38.3771 37.4212,39.2071 36.7372,40.1671 C36.0012,41.2031 35.1652,42.3771 33.4852,42.3771 C31.8052,42.3771 30.9712,41.2031 30.2352,40.1671 C29.5522,39.2071 28.9632,38.3771 27.8002,38.3771 C26.6372,38.3771 26.0492,39.2071 25.3662,40.1671 C24.6312,41.2031 23.7972,42.3771 22.1192,42.3771 C20.4392,42.3771 19.6052,41.2031 18.8692,40.1671 C18.1862,39.2061 17.5972,38.3771 16.4342,38.3771 C15.2722,38.3771 14.6832,39.2061 14.0012,40.1661 C13.2652,41.2031 12.4302,42.3771 10.7522,42.3771 C9.0732,42.3771 8.2392,41.2031 7.5042,40.1671 C6.8212,39.2071 6.2322,38.3771 5.0692,38.3771 C3.9072,38.3771 3.3182,39.2061 2.6362,40.1661 C1.9002,41.2031 1.0652,42.3771 -0.6138,42.3771 C-2.2908,42.3771 -3.1248,41.2031 -3.8608,40.1671 C-4.5428,39.2061 -5.1308,38.3771 -6.2928,38.3771 L-6.2928,37.3771 C-4.6148,37.3771 -3.7808,38.5511 -3.0458,39.5871 C-2.3638,40.5481 -1.7758,41.3771 -0.6138,41.3771 C0.5502,41.3771 1.1382,40.5471 1.8212,39.5871 C2.5562,38.5511 3.3902,37.3771 5.0692,37.3771 C6.7482,37.3771 7.5832,38.5511 8.3182,39.5881 C9.0012,40.5481 9.5902,41.3771 10.7522,41.3771 C11.9152,41.3771 12.5042,40.5471 13.1862,39.5871 C13.9222,38.5511 14.7562,37.3771 16.4342,37.3771 C18.1132,37.3771 18.9482,38.5511 19.6832,39.5871 C20.3662,40.5471 20.9562,41.3771 22.1192,41.3771 C23.2802,41.3771 23.8692,40.5481 24.5512,39.5881 C25.2872,38.5511 26.1212,37.3771 27.8002,37.3771 C29.4792,37.3771 30.3132,38.5511 31.0502,39.5871 C31.7322,40.5471 32.3222,41.3771 33.4852,41.3771 C34.6492,41.3771 35.2392,40.5481 35.9232,39.5871 C36.6592,38.5511 37.4952,37.3771 39.1762,37.3771 C40.8562,37.3771 41.6912,38.5511 42.4272,39.5871 C43.1112,40.5471 43.7012,41.3771 44.8652,41.3771 L44.8652,42.3771 Z" id="Fill-30" fill="#FFFFFF" mask="url(#mask-2)"></path>
                    </g>
                    <g id="Group-35">
                        <mask id="mask-4" fill="white">
                            <use xlink:href="#path-3"></use>
                        </mask>
                        <g id="Clip-34"></g>
                        <path d="M44.8652,37.1564 C43.1842,37.1564 42.3492,35.9824 41.6132,34.9464 C40.9292,33.9864 40.3402,33.1564 39.1762,33.1564 C38.0112,33.1564 37.4212,33.9864 36.7372,34.9464 C36.0012,35.9824 35.1652,37.1564 33.4852,37.1564 C31.8052,37.1564 30.9712,35.9824 30.2352,34.9464 C29.5522,33.9864 28.9632,33.1564 27.8002,33.1564 C26.6372,33.1564 26.0492,33.9864 25.3662,34.9464 C24.6312,35.9824 23.7972,37.1564 22.1192,37.1564 C20.4392,37.1564 19.6052,35.9824 18.8692,34.9464 C18.1862,33.9854 17.5972,33.1564 16.4342,33.1564 C15.2722,33.1564 14.6832,33.9854 14.0012,34.9454 C13.2652,35.9824 12.4302,37.1564 10.7522,37.1564 C9.0732,37.1564 8.2392,35.9824 7.5042,34.9464 C6.8212,33.9864 6.2322,33.1564 5.0692,33.1564 C3.9072,33.1564 3.3182,33.9854 2.6362,34.9454 C1.9002,35.9824 1.0652,37.1564 -0.6138,37.1564 C-2.2908,37.1564 -3.1248,35.9824 -3.8608,34.9464 C-4.5428,33.9854 -5.1308,33.1564 -6.2928,33.1564 L-6.2928,32.1564 C-4.6148,32.1564 -3.7808,33.3304 -3.0458,34.3664 C-2.3638,35.3274 -1.7758,36.1564 -0.6138,36.1564 C0.5502,36.1564 1.1382,35.3264 1.8212,34.3664 C2.5562,33.3304 3.3902,32.1564 5.0692,32.1564 C6.7482,32.1564 7.5832,33.3304 8.3182,34.3674 C9.0012,35.3274 9.5902,36.1564 10.7522,36.1564 C11.9152,36.1564 12.5042,35.3264 13.1862,34.3664 C13.9222,33.3304 14.7562,32.1564 16.4342,32.1564 C18.1132,32.1564 18.9482,33.3304 19.6832,34.3664 C20.3662,35.3264 20.9562,36.1564 22.1192,36.1564 C23.2802,36.1564 23.8692,35.3274 24.5512,34.3674 C25.2872,33.3304 26.1212,32.1564 27.8002,32.1564 C29.4792,32.1564 30.3132,33.3304 31.0502,34.3664 C31.7322,35.3264 32.3222,36.1564 33.4852,36.1564 C34.6492,36.1564 35.2392,35.3274 35.9232,34.3664 C36.6592,33.3304 37.4952,32.1564 39.1762,32.1564 C40.8562,32.1564 41.6912,33.3304 42.4272,34.3664 C43.1112,35.3264 43.7012,36.1564 44.8652,36.1564 L44.8652,37.1564 Z" id="Fill-33" fill="#FFFFFF" mask="url(#mask-4)"></path>
                    </g>
                    <g id="Group-38">
                        <mask id="mask-6" fill="white">
                            <use xlink:href="#path-5"></use>
                        </mask>
                        <g id="Clip-37"></g>
                        <path d="M44.8652,31.9357 C43.1842,31.9357 42.3492,30.7617 41.6132,29.7257 C40.9292,28.7657 40.3402,27.9357 39.1762,27.9357 C38.0112,27.9357 37.4212,28.7657 36.7372,29.7257 C36.0012,30.7617 35.1652,31.9357 33.4852,31.9357 C31.8052,31.9357 30.9712,30.7617 30.2352,29.7257 C29.5522,28.7657 28.9632,27.9357 27.8002,27.9357 C26.6372,27.9357 26.0492,28.7657 25.3662,29.7257 C24.6312,30.7617 23.7972,31.9357 22.1192,31.9357 C20.4392,31.9357 19.6052,30.7617 18.8692,29.7257 C18.1862,28.7647 17.5972,27.9357 16.4342,27.9357 C15.2722,27.9357 14.6832,28.7647 14.0012,29.7247 C13.2652,30.7617 12.4302,31.9357 10.7522,31.9357 C9.0732,31.9357 8.2392,30.7617 7.5042,29.7257 C6.8212,28.7657 6.2322,27.9357 5.0692,27.9357 C3.9072,27.9357 3.3182,28.7647 2.6362,29.7247 C1.9002,30.7617 1.0652,31.9357 -0.6138,31.9357 C-2.2908,31.9357 -3.1248,30.7617 -3.8608,29.7257 C-4.5428,28.7647 -5.1308,27.9357 -6.2928,27.9357 L-6.2928,26.9357 C-4.6148,26.9357 -3.7808,28.1097 -3.0458,29.1457 C-2.3638,30.1067 -1.7758,30.9357 -0.6138,30.9357 C0.5502,30.9357 1.1382,30.1057 1.8212,29.1457 C2.5562,28.1097 3.3902,26.9357 5.0692,26.9357 C6.7482,26.9357 7.5832,28.1097 8.3182,29.1467 C9.0012,30.1067 9.5902,30.9357 10.7522,30.9357 C11.9152,30.9357 12.5042,30.1057 13.1862,29.1457 C13.9222,28.1097 14.7562,26.9357 16.4342,26.9357 C18.1132,26.9357 18.9482,28.1097 19.6832,29.1457 C20.3662,30.1057 20.9562,30.9357 22.1192,30.9357 C23.2802,30.9357 23.8692,30.1067 24.5512,29.1467 C25.2872,28.1097 26.1212,26.9357 27.8002,26.9357 C29.4792,26.9357 30.3132,28.1097 31.0502,29.1457 C31.7322,30.1057 32.3222,30.9357 33.4852,30.9357 C34.6492,30.9357 35.2392,30.1067 35.9232,29.1457 C36.6592,28.1097 37.4952,26.9357 39.1762,26.9357 C40.8562,26.9357 41.6912,28.1097 42.4272,29.1457 C43.1112,30.1057 43.7012,30.9357 44.8652,30.9357 L44.8652,31.9357 Z" id="Fill-36" fill="#FFFFFF" mask="url(#mask-6)"></path>
                    </g>
                    <g id="Group-41">
                        <mask id="mask-8" fill="white">
                            <use xlink:href="#path-7"></use>
                        </mask>
                        <g id="Clip-40"></g>
                        <path d="M44.8652,26.7145 C43.1842,26.7145 42.3492,25.5405 41.6132,24.5045 C40.9292,23.5445 40.3402,22.7145 39.1762,22.7145 C38.0112,22.7145 37.4212,23.5445 36.7372,24.5045 C36.0012,25.5405 35.1652,26.7145 33.4852,26.7145 C31.8052,26.7145 30.9712,25.5405 30.2352,24.5045 C29.5522,23.5445 28.9632,22.7145 27.8002,22.7145 C26.6372,22.7145 26.0492,23.5445 25.3662,24.5045 C24.6312,25.5405 23.7972,26.7145 22.1192,26.7145 C20.4392,26.7145 19.6052,25.5405 18.8692,24.5045 C18.1862,23.5435 17.5972,22.7145 16.4342,22.7145 C15.2722,22.7145 14.6832,23.5435 14.0012,24.5035 C13.2652,25.5405 12.4302,26.7145 10.7522,26.7145 C9.0732,26.7145 8.2392,25.5405 7.5042,24.5045 C6.8212,23.5445 6.2322,22.7145 5.0692,22.7145 C3.9072,22.7145 3.3182,23.5435 2.6362,24.5035 C1.9002,25.5405 1.0652,26.7145 -0.6138,26.7145 C-2.2908,26.7145 -3.1248,25.5405 -3.8608,24.5045 C-4.5428,23.5435 -5.1308,22.7145 -6.2928,22.7145 L-6.2928,21.7145 C-4.6148,21.7145 -3.7808,22.8885 -3.0458,23.9245 C-2.3638,24.8855 -1.7758,25.7145 -0.6138,25.7145 C0.5502,25.7145 1.1382,24.8845 1.8212,23.9245 C2.5562,22.8885 3.3902,21.7145 5.0692,21.7145 C6.7482,21.7145 7.5832,22.8885 8.3182,23.9255 C9.0012,24.8855 9.5902,25.7145 10.7522,25.7145 C11.9152,25.7145 12.5042,24.8845 13.1862,23.9245 C13.9222,22.8885 14.7562,21.7145 16.4342,21.7145 C18.1132,21.7145 18.9482,22.8885 19.6832,23.9245 C20.3662,24.8845 20.9562,25.7145 22.1192,25.7145 C23.2802,25.7145 23.8692,24.8855 24.5512,23.9255 C25.2872,22.8885 26.1212,21.7145 27.8002,21.7145 C29.4792,21.7145 30.3132,22.8885 31.0502,23.9245 C31.7322,24.8845 32.3222,25.7145 33.4852,25.7145 C34.6492,25.7145 35.2392,24.8855 35.9232,23.9245 C36.6592,22.8885 37.4952,21.7145 39.1762,21.7145 C40.8562,21.7145 41.6912,22.8885 42.4272,23.9245 C43.1112,24.8845 43.7012,25.7145 44.8652,25.7145 L44.8652,26.7145 Z" id="Fill-39" fill="#FFFFFF" mask="url(#mask-8)"></path>
                    </g>
                    <g id="Group-44">
                        <mask id="mask-10" fill="white">
                            <use xlink:href="#path-9"></use>
                        </mask>
                        <g id="Clip-43"></g>
                        <path d="M44.8652,21.4938 C43.1842,21.4938 42.3492,20.3198 41.6132,19.2838 C40.9292,18.3238 40.3402,17.4938 39.1762,17.4938 C38.0112,17.4938 37.4212,18.3238 36.7372,19.2838 C36.0012,20.3198 35.1652,21.4938 33.4852,21.4938 C31.8052,21.4938 30.9712,20.3198 30.2352,19.2838 C29.5522,18.3238 28.9632,17.4938 27.8002,17.4938 C26.6372,17.4938 26.0492,18.3238 25.3662,19.2838 C24.6312,20.3198 23.7972,21.4938 22.1192,21.4938 C20.4392,21.4938 19.6052,20.3198 18.8692,19.2838 C18.1862,18.3228 17.5972,17.4938 16.4342,17.4938 C15.2722,17.4938 14.6832,18.3228 14.0012,19.2828 C13.2652,20.3198 12.4302,21.4938 10.7522,21.4938 C9.0732,21.4938 8.2392,20.3198 7.5042,19.2838 C6.8212,18.3238 6.2322,17.4938 5.0692,17.4938 C3.9072,17.4938 3.3182,18.3228 2.6362,19.2828 C1.9002,20.3198 1.0652,21.4938 -0.6138,21.4938 C-2.2908,21.4938 -3.1248,20.3198 -3.8608,19.2838 C-4.5428,18.3228 -5.1308,17.4938 -6.2928,17.4938 L-6.2928,16.4938 C-4.6148,16.4938 -3.7808,17.6678 -3.0458,18.7038 C-2.3638,19.6648 -1.7758,20.4938 -0.6138,20.4938 C0.5502,20.4938 1.1382,19.6638 1.8212,18.7038 C2.5562,17.6678 3.3902,16.4938 5.0692,16.4938 C6.7482,16.4938 7.5832,17.6678 8.3182,18.7048 C9.0012,19.6648 9.5902,20.4938 10.7522,20.4938 C11.9152,20.4938 12.5042,19.6638 13.1862,18.7038 C13.9222,17.6678 14.7562,16.4938 16.4342,16.4938 C18.1132,16.4938 18.9482,17.6678 19.6832,18.7038 C20.3662,19.6638 20.9562,20.4938 22.1192,20.4938 C23.2802,20.4938 23.8692,19.6648 24.5512,18.7048 C25.2872,17.6678 26.1212,16.4938 27.8002,16.4938 C29.4792,16.4938 30.3132,17.6678 31.0502,18.7038 C31.7322,19.6638 32.3222,20.4938 33.4852,20.4938 C34.6492,20.4938 35.2392,19.6648 35.9232,18.7038 C36.6592,17.6678 37.4952,16.4938 39.1762,16.4938 C40.8562,16.4938 41.6912,17.6678 42.4272,18.7038 C43.1112,19.6638 43.7012,20.4938 44.8652,20.4938 L44.8652,21.4938 Z" id="Fill-42" fill="#FFFFFF" mask="url(#mask-10)"></path>
                    </g>
                    <g id="Group-47">
                        <mask id="mask-12" fill="white">
                            <use xlink:href="#path-11"></use>
                        </mask>
                        <g id="Clip-46"></g>
                        <path d="M44.8652,16.2726 C43.1842,16.2726 42.3492,15.0986 41.6132,14.0626 C40.9292,13.1026 40.3402,12.2726 39.1762,12.2726 C38.0112,12.2726 37.4212,13.1026 36.7372,14.0626 C36.0012,15.0986 35.1652,16.2726 33.4852,16.2726 C31.8052,16.2726 30.9712,15.0986 30.2352,14.0626 C29.5522,13.1026 28.9632,12.2726 27.8002,12.2726 C26.6372,12.2726 26.0492,13.1026 25.3662,14.0626 C24.6312,15.0986 23.7972,16.2726 22.1192,16.2726 C20.4392,16.2726 19.6052,15.0986 18.8692,14.0626 C18.1862,13.1016 17.5972,12.2726 16.4342,12.2726 C15.2722,12.2726 14.6832,13.1016 14.0012,14.0616 C13.2652,15.0986 12.4302,16.2726 10.7522,16.2726 C9.0732,16.2726 8.2392,15.0986 7.5042,14.0626 C6.8212,13.1026 6.2322,12.2726 5.0692,12.2726 C3.9072,12.2726 3.3182,13.1016 2.6362,14.0616 C1.9002,15.0986 1.0652,16.2726 -0.6138,16.2726 C-2.2908,16.2726 -3.1248,15.0986 -3.8608,14.0626 C-4.5428,13.1016 -5.1308,12.2726 -6.2928,12.2726 L-6.2928,11.2726 C-4.6148,11.2726 -3.7808,12.4466 -3.0458,13.4826 C-2.3638,14.4436 -1.7758,15.2726 -0.6138,15.2726 C0.5502,15.2726 1.1382,14.4426 1.8212,13.4826 C2.5562,12.4466 3.3902,11.2726 5.0692,11.2726 C6.7482,11.2726 7.5832,12.4466 8.3182,13.4836 C9.0012,14.4436 9.5902,15.2726 10.7522,15.2726 C11.9152,15.2726 12.5042,14.4426 13.1862,13.4826 C13.9222,12.4466 14.7562,11.2726 16.4342,11.2726 C18.1132,11.2726 18.9482,12.4466 19.6832,13.4826 C20.3662,14.4426 20.9562,15.2726 22.1192,15.2726 C23.2802,15.2726 23.8692,14.4436 24.5512,13.4836 C25.2872,12.4466 26.1212,11.2726 27.8002,11.2726 C29.4792,11.2726 30.3132,12.4466 31.0502,13.4826 C31.7322,14.4426 32.3222,15.2726 33.4852,15.2726 C34.6492,15.2726 35.2392,14.4436 35.9232,13.4826 C36.6592,12.4466 37.4952,11.2726 39.1762,11.2726 C40.8562,11.2726 41.6912,12.4466 42.4272,13.4826 C43.1112,14.4426 43.7012,15.2726 44.8652,15.2726 L44.8652,16.2726 Z" id="Fill-45" fill="#FFFFFF" mask="url(#mask-12)"></path>
                    </g>
                </g>
            </g>
        </g>
    </g>
</svg>