<?xml version="1.0" encoding="UTF-8"?>
<svg width="30px" height="30px" viewBox="0 0 30 30" version="1.1" xmlns="http://www.w3.org/2000/svg" xmlns:xlink="http://www.w3.org/1999/xlink">
    <!-- Generator: sketchtool 63.1 (101010) - https://sketch.com -->
    <title>72052CA8-069E-4AFB-A227-8704BA7D8A62</title>
    <desc>Created with sketchtool.</desc>
    <g id="Page-1" stroke="none" stroke-width="1" fill="none" fill-rule="evenodd">
        <g id="Flora-&amp;-Fauna" transform="translate(-19.000000, -86.000000)" stroke="#1E3664">
            <path d="M33.9985076,104.550962 C32.037364,104.550962 30.4471669,102.95994 30.4471669,101 C30.4471669,99.0400597 32.037364,97.4490376 33.9985076,97.4490376 C35.9606456,97.4490376 37.5488537,99.0400597 37.5488537,101 C37.5488537,102.960935 35.9596511,104.550962 33.9985076,104.550962 Z M48,101 C48,99.7063002 47.4689384,98.6592088 43.9235648,98.6582144 C43.4919541,98.6582144 43.0344865,98.6741246 42.5660795,98.7039562 C42.9877453,98.4941402 43.3915101,98.2793522 43.7674291,98.0635699 C46.8354453,96.2925634 46.7717976,95.120179 46.1243816,94.0004972 C45.4769655,92.8808154 44.4944048,92.2384402 41.4234051,94.0094467 C41.0484806,94.2252291 40.6596331,94.4688543 40.2678022,94.7303786 C40.5283598,94.337595 40.7710166,93.9477946 40.9888109,93.57291 C42.760006,90.5062149 42.1195514,89.5227644 40.9987558,88.8764117 C39.8789548,88.2310533 38.7044565,88.1654237 36.9332615,91.2331131 C36.7174561,91.6060089 36.5036397,92.007742 36.2957903,92.4273741 C36.3246307,91.959017 36.3405426,91.5025925 36.3405426,91.0740109 C36.3405426,87.5310036 35.2923452,87 34.0004966,87 C32.7066589,87 31.659456,87.5300092 31.659456,91.0740109 C31.659456,91.5075645 31.6753679,91.9649833 31.7052028,92.4343348 C31.4963589,92.012714 31.281548,91.6089921 31.0647482,91.2331131 C29.2925586,88.1654237 28.1190548,88.2290646 26.9992538,88.8764117 C25.8784582,89.52177 25.2370092,90.5072093 27.0082042,93.5758932 C27.2240096,93.948789 27.4666663,94.337595 27.7262294,94.7283898 C27.3343985,94.4678599 26.9475401,94.2252291 26.57361,94.0094467 C23.5036049,92.2374458 22.5210441,92.879821 21.8746225,94.0004972 C21.2272065,95.120179 21.1635588,96.2935578 24.2325695,98.0655586 C24.605505,98.2803466 25.0092699,98.496129 25.4299411,98.7039562 C24.9615341,98.6741246 24.505061,98.6582144 24.0744448,98.6582144 C20.5310602,98.6582144 20,99.7063002 20,101 C20,102.2937 20.5320547,103.340791 24.0754393,103.340791 C24.50705,103.340791 24.9625286,103.323887 25.4309356,103.294055 C25.0102644,103.503871 24.6064995,103.717665 24.233564,103.934441 C21.1645533,105.706442 21.2291955,106.879821 21.875617,107.999503 C22.5230331,109.120179 23.5075828,109.76156 26.577588,107.990553 C26.949529,107.774771 27.3343985,107.534129 27.7232459,107.275588 C27.4646773,107.666383 27.2230151,108.049222 27.0082042,108.422118 C25.2370092,111.491796 25.8784582,112.475247 26.9992538,113.123588 C28.1200493,113.768947 29.2945476,113.833582 31.0677316,110.763904 C31.283537,110.389019 31.4983479,109.985297 31.7071917,109.563676 C31.6773569,110.035017 31.661445,110.49343 31.661445,110.924995 C31.661445,114.468002 32.7096424,115 34.0024855,115 C35.2963232,115 36.3435261,114.469991 36.3435261,110.924995 C36.3435261,110.492436 36.3276142,110.034022 36.2987738,109.565665 C36.5066232,109.98828 36.7224286,110.392997 36.9392284,110.766887 C38.709429,113.834576 39.8829328,113.770935 41.0027338,113.123588 C42.1225349,112.47823 42.7649784,111.491796 40.9937834,108.423112 C40.777978,108.048228 40.5333323,107.659422 40.2727747,107.267633 C40.6656001,107.530151 41.053453,107.772782 41.4283776,107.988565 C44.4953992,109.76156 45.4809435,109.120179 46.1273651,107.999503 C46.7737866,106.879821 46.8384288,105.706442 43.7694181,103.934441 C43.3954881,103.717665 42.9897343,103.501882 42.5680685,103.294055 C43.0384645,103.321898 43.4969266,103.338802 43.9305262,103.338802 C47.4689384,103.341786 48.0009931,102.2937 48,101 Z" id="Flora"></path>
        </g>
    </g>
</svg>