<?xml version="1.0" encoding="UTF-8"?>
<svg width="46px" height="46px" viewBox="0 0 46 46" version="1.1" xmlns="http://www.w3.org/2000/svg" xmlns:xlink="http://www.w3.org/1999/xlink">
    <!-- Generator: sketchtool 63.1 (101010) - https://sketch.com -->
    <title>BCEBD5FC-8C31-44B1-9C15-D0AA905B130A</title>
    <desc>Created with sketchtool.</desc>
    <g id="Page-1" stroke="none" stroke-width="1" fill="none" fill-rule="evenodd">
        <g id="Water-Level-&amp;-Weather" transform="translate(-255.000000, -393.000000)">
            <g id="HeavyRain---unselected" transform="translate(256.000000, 394.000000)">
                <path d="M31.908,43.908 L12,43.908 C5.373,43.908 -3.55271368e-15,38.535 -3.55271368e-15,31.908 L-3.55271368e-15,12 C-3.55271368e-15,5.373 5.373,-4.97379915e-14 12,-4.97379915e-14 L31.908,-4.97379915e-14 C38.535,-4.97379915e-14 43.908,5.373 43.908,12 L43.908,31.908 C43.908,38.535 38.535,43.908 31.908,43.908 Z" id="Stroke-9" stroke="#1E3664"></path>
                <line x1="26.1511" y1="29.677" x2="26.1511" y2="33.019" id="Stroke-75" stroke="#1E3664" stroke-linecap="round"></line>
                <line x1="23.0046" y1="26.1091" x2="23.0046" y2="29.4511" id="Stroke-77" stroke="#1E3664" stroke-linecap="round"></line>
                <line x1="29.2966" y1="26.1091" x2="29.2966" y2="29.4511" id="Stroke-79" stroke="#1E3664" stroke-linecap="round"></line>
                <line x1="17.7566" y1="29.4509" x2="17.7566" y2="26.1089" id="Stroke-81" stroke="#1E3664" stroke-linecap="round"></line>
                <line x1="23.0046" y1="34.0188" x2="23.0046" y2="37.3608" id="Stroke-83" stroke="#1E3664" stroke-linecap="round"></line>
                <line x1="29.2966" y1="34.0188" x2="29.2966" y2="37.3608" id="Stroke-85" stroke="#1E3664" stroke-linecap="round"></line>
                <line x1="17.7566" y1="37.3606" x2="17.7566" y2="34.0186" id="Stroke-87" stroke="#1E3664" stroke-linecap="round"></line>
                <line x1="20.9031" y1="33.0188" x2="20.9031" y2="29.6768" id="Stroke-89" stroke="#1E3664" stroke-linecap="round"></line>
                <line x1="14.6111" y1="33.0188" x2="14.6111" y2="29.6768" id="Stroke-91" stroke="#1E3664" stroke-linecap="round"></line>
                <path d="M34.4939,18.3289 C34.4939,21.0289 32.3139,23.2189 29.6139,23.2189 C28.1939,23.2189 26.9139,22.6089 26.0239,21.6389 C24.8049,23.3289 22.8049,24.4289 20.5549,24.4289 C18.6439,24.4289 16.9139,23.6389 15.6839,22.3589 C15.0149,22.8889 14.1639,23.2189 13.2439,23.2189 C11.1339,23.2189 9.4139,21.4989 9.4139,19.3889 C9.4139,17.2689 11.1339,15.5489 13.2439,15.5489 C13.5339,15.5489 13.8139,15.5789 14.0839,15.6489 C14.9439,12.8889 17.5149,10.8889 20.5549,10.8889 C23.1639,10.8889 25.4339,12.3689 26.5549,14.5289 C27.3939,13.8489 28.4539,13.4389 29.6139,13.4389 C32.3139,13.4389 34.4939,15.6289 34.4939,18.3289" id="Fill-93" fill="#FFFFFF"></path>
                <path d="M34.4939,18.3289 C34.4939,21.0289 32.3139,23.2189 29.6139,23.2189 C28.1939,23.2189 26.9139,22.6089 26.0239,21.6389 C24.8049,23.3289 22.8049,24.4289 20.5549,24.4289 C18.6439,24.4289 16.9139,23.6389 15.6839,22.3589 C15.0149,22.8889 14.1639,23.2189 13.2439,23.2189 C11.1339,23.2189 9.4139,21.4989 9.4139,19.3889 C9.4139,17.2689 11.1339,15.5489 13.2439,15.5489 C13.5339,15.5489 13.8139,15.5789 14.0839,15.6489 C14.9439,12.8889 17.5149,10.8889 20.5549,10.8889 C23.1639,10.8889 25.4339,12.3689 26.5549,14.5289 C27.3939,13.8489 28.4539,13.4389 29.6139,13.4389 C32.3139,13.4389 34.4939,15.6289 34.4939,18.3289 Z" id="Stroke-95" stroke="#1E3664" stroke-linecap="round"></path>
            </g>
        </g>
    </g>
</svg>