<?xml version="1.0" encoding="UTF-8"?>
<svg width="45px" height="45px" viewBox="0 0 45 45" version="1.1" xmlns="http://www.w3.org/2000/svg" xmlns:xlink="http://www.w3.org/1999/xlink">
    <!-- Generator: sketchtool 63.1 (101010) - https://sketch.com -->
    <title>65832A05-72FF-464E-9BBD-72128F56A9C0</title>
    <desc>Created with sketchtool.</desc>
    <defs>
        <path d="M12.097,0.592 C5.469,0.592 0.096,5.965 0.096,12.592 L0.096,12.592 L0.096,32.5 C0.096,39.128 5.469,44.501 12.097,44.501 L12.097,44.501 L32.004,44.501 C38.632,44.501 44.004,39.128 44.004,32.5 L44.004,32.5 L44.004,12.592 C44.004,5.965 38.632,0.592 32.004,0.592 L32.004,0.592 L12.097,0.592 Z" id="path-1"></path>
    </defs>
    <g id="Page-1" stroke="none" stroke-width="1" fill="none" fill-rule="evenodd">
        <g id="Water-Level-&amp;-Weather-(1)" transform="translate(-174.000000, -265.000000)">
            <g id="High---selected" transform="translate(174.000000, 265.000000)">
                <path d="M32.0039,44.5002 L12.0969,44.5002 C5.4689,44.5002 0.0969,39.1272 0.0969,32.5002 L0.0969,12.5922 C0.0969,5.9652 5.4689,0.5922 12.0969,0.5922 L32.0039,0.5922 C38.6319,0.5922 44.0039,5.9652 44.0039,12.5922 L44.0039,32.5002 C44.0039,39.1272 38.6319,44.5002 32.0039,44.5002 Z" id="Stroke-5" fill="#D8D8D8"></path>
                <path d="M32.0039,44.5002 L12.0969,44.5002 C5.4689,44.5002 0.0969,39.1272 0.0969,32.5002 L0.0969,12.5922 C0.0969,5.9652 5.4689,0.5922 12.0969,0.5922 L32.0039,0.5922 C38.6319,0.5922 44.0039,5.9652 44.0039,12.5922 L44.0039,32.5002 C44.0039,39.1272 38.6319,44.5002 32.0039,44.5002 Z" id="Stroke-5" fill="#1E3664"></path>
                <mask id="mask-2" fill="white">
                    <use xlink:href="#path-1"></use>
                </mask>
                <g id="Clip-27"></g>
                <path d="M44.6299,42.3771 C42.9489,42.3771 42.1129,41.2031 41.3769,40.1671 C40.6929,39.2061 40.1039,38.3771 38.9399,38.3771 C37.7759,38.3771 37.1859,39.2071 36.5019,40.1671 C35.7659,41.2031 34.9309,42.3771 33.2499,42.3771 C31.5699,42.3771 30.7359,41.2031 29.9999,40.1671 C29.3169,39.2071 28.7279,38.3771 27.5649,38.3771 C26.4019,38.3771 25.8139,39.2061 25.1309,40.1671 C24.3959,41.2031 23.5619,42.3771 21.8829,42.3771 C20.2039,42.3771 19.3689,41.2031 18.6339,40.1671 C17.9509,39.2061 17.3619,38.3771 16.1989,38.3771 C15.0359,38.3771 14.4469,39.2071 13.7649,40.1671 C13.0289,41.2031 12.1949,42.3771 10.5169,42.3771 C8.8379,42.3771 8.0029,41.2031 7.2679,40.1661 C6.5849,39.2061 5.9959,38.3771 4.8339,38.3771 C3.6719,38.3771 3.0829,39.2061 2.4009,40.1661 C1.6649,41.2031 0.8299,42.3771 -0.8491,42.3771 C-2.5261,42.3771 -3.3601,41.2031 -4.0961,40.1671 C-4.7781,39.2061 -5.3661,38.3771 -6.5281,38.3771 L-6.5281,37.3771 C-4.8501,37.3771 -4.0161,38.5511 -3.2811,39.5871 C-2.5991,40.5481 -2.0111,41.3771 -0.8491,41.3771 C0.3149,41.3771 0.9029,40.5471 1.5859,39.5871 C2.3209,38.5511 3.1549,37.3771 4.8339,37.3771 C6.5129,37.3771 7.3469,38.5511 8.0819,39.5871 C8.7649,40.5471 9.3539,41.3771 10.5169,41.3771 C11.6789,41.3771 12.2679,40.5481 12.9499,39.5881 C13.6859,38.5511 14.5209,37.3771 16.1989,37.3771 C17.8779,37.3771 18.7129,38.5511 19.4479,39.5871 C20.1309,40.5481 20.7199,41.3771 21.8829,41.3771 C23.0449,41.3771 23.6339,40.5481 24.3169,39.5871 C25.0519,38.5511 25.8859,37.3771 27.5649,37.3771 C29.2439,37.3771 30.0779,38.5511 30.8149,39.5871 C31.4969,40.5471 32.0869,41.3771 33.2499,41.3771 C34.4139,41.3771 35.0039,40.5471 35.6879,39.5871 C36.4239,38.5511 37.2589,37.3771 38.9399,37.3771 C40.6199,37.3771 41.4549,38.5511 42.1919,39.5871 C42.8749,40.5471 43.4649,41.3771 44.6299,41.3771 L44.6299,42.3771 Z" id="Fill-17" fill="#FFFFFF" mask="url(#mask-2)"></path>
                <path d="M44.6299,37.1564 C42.9489,37.1564 42.1129,35.9824 41.3769,34.9464 C40.6929,33.9854 40.1039,33.1564 38.9399,33.1564 C37.7759,33.1564 37.1859,33.9864 36.5019,34.9464 C35.7659,35.9824 34.9309,37.1564 33.2499,37.1564 C31.5699,37.1564 30.7359,35.9824 29.9999,34.9464 C29.3169,33.9864 28.7279,33.1564 27.5649,33.1564 C26.4019,33.1564 25.8139,33.9854 25.1309,34.9464 C24.3959,35.9824 23.5619,37.1564 21.8829,37.1564 C20.2039,37.1564 19.3689,35.9824 18.6339,34.9464 C17.9509,33.9854 17.3619,33.1564 16.1989,33.1564 C15.0359,33.1564 14.4469,33.9864 13.7649,34.9464 C13.0289,35.9824 12.1949,37.1564 10.5169,37.1564 C8.8379,37.1564 8.0029,35.9824 7.2679,34.9454 C6.5849,33.9854 5.9959,33.1564 4.8339,33.1564 C3.6719,33.1564 3.0829,33.9854 2.4009,34.9454 C1.6649,35.9824 0.8299,37.1564 -0.8491,37.1564 C-2.5261,37.1564 -3.3601,35.9824 -4.0961,34.9464 C-4.7781,33.9854 -5.3661,33.1564 -6.5281,33.1564 L-6.5281,32.1564 C-4.8501,32.1564 -4.0161,33.3304 -3.2811,34.3664 C-2.5991,35.3274 -2.0111,36.1564 -0.8491,36.1564 C0.3149,36.1564 0.9029,35.3264 1.5859,34.3664 C2.3209,33.3304 3.1549,32.1564 4.8339,32.1564 C6.5129,32.1564 7.3469,33.3304 8.0819,34.3664 C8.7649,35.3264 9.3539,36.1564 10.5169,36.1564 C11.6789,36.1564 12.2679,35.3274 12.9499,34.3674 C13.6859,33.3304 14.5209,32.1564 16.1989,32.1564 C17.8779,32.1564 18.7129,33.3304 19.4479,34.3664 C20.1309,35.3274 20.7199,36.1564 21.8829,36.1564 C23.0449,36.1564 23.6339,35.3274 24.3169,34.3664 C25.0519,33.3304 25.8859,32.1564 27.5649,32.1564 C29.2439,32.1564 30.0779,33.3304 30.8149,34.3664 C31.4969,35.3264 32.0869,36.1564 33.2499,36.1564 C34.4139,36.1564 35.0039,35.3264 35.6879,34.3664 C36.4239,33.3304 37.2589,32.1564 38.9399,32.1564 C40.6199,32.1564 41.4549,33.3304 42.1919,34.3664 C42.8749,35.3264 43.4649,36.1564 44.6299,36.1564 L44.6299,37.1564 Z" id="Fill-20" fill="#FFFFFF" mask="url(#mask-2)"></path>
                <path d="M44.6299,31.9357 C42.9489,31.9357 42.1129,30.7617 41.3769,29.7257 C40.6929,28.7647 40.1039,27.9357 38.9399,27.9357 C37.7759,27.9357 37.1859,28.7657 36.5019,29.7257 C35.7659,30.7617 34.9309,31.9357 33.2499,31.9357 C31.5699,31.9357 30.7359,30.7617 29.9999,29.7257 C29.3169,28.7657 28.7279,27.9357 27.5649,27.9357 C26.4019,27.9357 25.8139,28.7647 25.1309,29.7257 C24.3959,30.7617 23.5619,31.9357 21.8829,31.9357 C20.2039,31.9357 19.3689,30.7617 18.6339,29.7257 C17.9509,28.7647 17.3619,27.9357 16.1989,27.9357 C15.0359,27.9357 14.4469,28.7657 13.7649,29.7257 C13.0289,30.7617 12.1949,31.9357 10.5169,31.9357 C8.8379,31.9357 8.0029,30.7617 7.2679,29.7247 C6.5849,28.7647 5.9959,27.9357 4.8339,27.9357 C3.6719,27.9357 3.0829,28.7647 2.4009,29.7247 C1.6649,30.7617 0.8299,31.9357 -0.8491,31.9357 C-2.5261,31.9357 -3.3601,30.7617 -4.0961,29.7257 C-4.7781,28.7647 -5.3661,27.9357 -6.5281,27.9357 L-6.5281,26.9357 C-4.8501,26.9357 -4.0161,28.1097 -3.2811,29.1457 C-2.5991,30.1067 -2.0111,30.9357 -0.8491,30.9357 C0.3149,30.9357 0.9029,30.1057 1.5859,29.1457 C2.3209,28.1097 3.1549,26.9357 4.8339,26.9357 C6.5129,26.9357 7.3469,28.1097 8.0819,29.1457 C8.7649,30.1057 9.3539,30.9357 10.5169,30.9357 C11.6789,30.9357 12.2679,30.1067 12.9499,29.1467 C13.6859,28.1097 14.5209,26.9357 16.1989,26.9357 C17.8779,26.9357 18.7129,28.1097 19.4479,29.1457 C20.1309,30.1067 20.7199,30.9357 21.8829,30.9357 C23.0449,30.9357 23.6339,30.1067 24.3169,29.1457 C25.0519,28.1097 25.8859,26.9357 27.5649,26.9357 C29.2439,26.9357 30.0779,28.1097 30.8149,29.1457 C31.4969,30.1057 32.0869,30.9357 33.2499,30.9357 C34.4139,30.9357 35.0039,30.1057 35.6879,29.1457 C36.4239,28.1097 37.2589,26.9357 38.9399,26.9357 C40.6199,26.9357 41.4549,28.1097 42.1919,29.1457 C42.8749,30.1057 43.4649,30.9357 44.6299,30.9357 L44.6299,31.9357 Z" id="Fill-23" fill="#FFFFFF" mask="url(#mask-2)"></path>
                <path d="M44.6299,26.7145 C42.9489,26.7145 42.1129,25.5405 41.3769,24.5045 C40.6929,23.5435 40.1039,22.7145 38.9399,22.7145 C37.7759,22.7145 37.1859,23.5445 36.5019,24.5045 C35.7659,25.5405 34.9309,26.7145 33.2499,26.7145 C31.5699,26.7145 30.7359,25.5405 29.9999,24.5045 C29.3169,23.5445 28.7279,22.7145 27.5649,22.7145 C26.4019,22.7145 25.8139,23.5435 25.1309,24.5045 C24.3959,25.5405 23.5619,26.7145 21.8829,26.7145 C20.2039,26.7145 19.3689,25.5405 18.6339,24.5045 C17.9509,23.5435 17.3619,22.7145 16.1989,22.7145 C15.0359,22.7145 14.4469,23.5445 13.7649,24.5045 C13.0289,25.5405 12.1949,26.7145 10.5169,26.7145 C8.8379,26.7145 8.0029,25.5405 7.2679,24.5035 C6.5849,23.5435 5.9959,22.7145 4.8339,22.7145 C3.6719,22.7145 3.0829,23.5435 2.4009,24.5035 C1.6649,25.5405 0.8299,26.7145 -0.8491,26.7145 C-2.5261,26.7145 -3.3601,25.5405 -4.0961,24.5045 C-4.7781,23.5435 -5.3661,22.7145 -6.5281,22.7145 L-6.5281,21.7145 C-4.8501,21.7145 -4.0161,22.8885 -3.2811,23.9245 C-2.5991,24.8855 -2.0111,25.7145 -0.8491,25.7145 C0.3149,25.7145 0.9029,24.8845 1.5859,23.9245 C2.3209,22.8885 3.1549,21.7145 4.8339,21.7145 C6.5129,21.7145 7.3469,22.8885 8.0819,23.9245 C8.7649,24.8845 9.3539,25.7145 10.5169,25.7145 C11.6789,25.7145 12.2679,24.8855 12.9499,23.9255 C13.6859,22.8885 14.5209,21.7145 16.1989,21.7145 C17.8779,21.7145 18.7129,22.8885 19.4479,23.9245 C20.1309,24.8855 20.7199,25.7145 21.8829,25.7145 C23.0449,25.7145 23.6339,24.8855 24.3169,23.9245 C25.0519,22.8885 25.8859,21.7145 27.5649,21.7145 C29.2439,21.7145 30.0779,22.8885 30.8149,23.9245 C31.4969,24.8845 32.0869,25.7145 33.2499,25.7145 C34.4139,25.7145 35.0039,24.8845 35.6879,23.9245 C36.4239,22.8885 37.2589,21.7145 38.9399,21.7145 C40.6199,21.7145 41.4549,22.8885 42.1919,23.9245 C42.8749,24.8845 43.4649,25.7145 44.6299,25.7145 L44.6299,26.7145 Z" id="Fill-26" fill="#FFFFFF" mask="url(#mask-2)"></path>
            </g>
        </g>
    </g>
</svg>