<?xml version="1.0" encoding="UTF-8"?>
<svg width="45px" height="45px" viewBox="0 0 45 45" version="1.1" xmlns="http://www.w3.org/2000/svg" xmlns:xlink="http://www.w3.org/1999/xlink">
    <!-- Generator: sketchtool 63.1 (101010) - https://sketch.com -->
    <title>076526A3-EB99-4CEB-BBEE-42668EF5C88B</title>
    <desc>Created with sketchtool.</desc>
    <defs>
        <path d="M12.625,0.592 C5.998,0.592 0.625,5.965 0.625,12.592 L0.625,12.592 L0.625,32.5 C0.625,39.128 5.998,44.501 12.625,44.501 L12.625,44.501 L32.534,44.501 C39.16,44.501 44.533,39.128 44.533,32.5 L44.533,32.5 L44.533,12.592 C44.533,5.965 39.16,0.592 32.534,0.592 L32.534,0.592 L12.625,0.592 Z" id="path-1"></path>
    </defs>
    <g id="Page-1" stroke="none" stroke-width="1" fill="none" fill-rule="evenodd">
        <g id="Water-Level-&amp;-Weather-(1)" transform="translate(-20.000000, -265.000000)">
            <g id="Low---selected" transform="translate(20.000000, 265.000000)">
                <g id="Group-5">
                    <path d="M32.5332,44.5002 L12.6252,44.5002 C5.9982,44.5002 0.6252,39.1272 0.6252,32.5002 L0.6252,12.5922 C0.6252,5.9652 5.9982,0.5922 12.6252,0.5922 L32.5332,0.5922 C39.1602,0.5922 44.5332,5.9652 44.5332,12.5922 L44.5332,32.5002 C44.5332,39.1272 39.1602,44.5002 32.5332,44.5002 Z" id="Stroke-1" fill="#1E3664"></path>
                    <g id="Group-51">
                        <mask id="mask-2" fill="white">
                            <use xlink:href="#path-1"></use>
                        </mask>
                        <g id="Clip-50"></g>
                        <path d="M45.1582,42.3771 C43.4772,42.3771 42.6422,41.2031 41.9062,40.1671 C41.2222,39.2071 40.6332,38.3771 39.4692,38.3771 C38.3042,38.3771 37.7142,39.2071 37.0302,40.1671 C36.2942,41.2031 35.4582,42.3771 33.7782,42.3771 C32.0982,42.3771 31.2642,41.2031 30.5282,40.1671 C29.8452,39.2071 29.2562,38.3771 28.0932,38.3771 C26.9302,38.3771 26.3422,39.2071 25.6592,40.1671 C24.9242,41.2031 24.0902,42.3771 22.4122,42.3771 C20.7322,42.3771 19.8982,41.2031 19.1622,40.1671 C18.4792,39.2061 17.8902,38.3771 16.7272,38.3771 C15.5652,38.3771 14.9762,39.2061 14.2942,40.1661 C13.5582,41.2031 12.7232,42.3771 11.0452,42.3771 C9.3662,42.3771 8.5322,41.2031 7.7972,40.1671 C7.1142,39.2071 6.5252,38.3771 5.3622,38.3771 C4.2002,38.3771 3.6112,39.2061 2.9292,40.1661 C2.1932,41.2031 1.3582,42.3771 -0.3208,42.3771 C-1.9978,42.3771 -2.8318,41.2031 -3.5678,40.1671 C-4.2498,39.2061 -4.8378,38.3771 -5.9998,38.3771 L-5.9998,37.3771 C-4.3218,37.3771 -3.4878,38.5511 -2.7528,39.5871 C-2.0708,40.5481 -1.4828,41.3771 -0.3208,41.3771 C0.8432,41.3771 1.4312,40.5471 2.1142,39.5871 C2.8492,38.5511 3.6832,37.3771 5.3622,37.3771 C7.0412,37.3771 7.8762,38.5511 8.6112,39.5881 C9.2942,40.5481 9.8832,41.3771 11.0452,41.3771 C12.2082,41.3771 12.7972,40.5471 13.4792,39.5871 C14.2152,38.5511 15.0492,37.3771 16.7272,37.3771 C18.4062,37.3771 19.2412,38.5511 19.9762,39.5871 C20.6592,40.5471 21.2492,41.3771 22.4122,41.3771 C23.5732,41.3771 24.1622,40.5481 24.8442,39.5881 C25.5802,38.5511 26.4142,37.3771 28.0932,37.3771 C29.7722,37.3771 30.6062,38.5511 31.3432,39.5871 C32.0252,40.5471 32.6152,41.3771 33.7782,41.3771 C34.9422,41.3771 35.5322,40.5481 36.2162,39.5871 C36.9522,38.5511 37.7882,37.3771 39.4692,37.3771 C41.1492,37.3771 41.9842,38.5511 42.7202,39.5871 C43.4042,40.5471 43.9942,41.3771 45.1582,41.3771 L45.1582,42.3771 Z" id="Fill-49" fill="#FFFFFF" mask="url(#mask-2)"></path>
                    </g>
                </g>
            </g>
        </g>
    </g>
</svg>