<?xml version="1.0" encoding="UTF-8"?>
<svg width="46px" height="46px" viewBox="0 0 46 46" version="1.1" xmlns="http://www.w3.org/2000/svg" xmlns:xlink="http://www.w3.org/1999/xlink">
    <!-- Generator: sketchtool 63.1 (101010) - https://sketch.com -->
    <title>7672F072-3415-417A-A6E7-3F33463AF6CB</title>
    <desc>Created with sketchtool.</desc>
    <defs>
        <path d="M31.9746565,44 L12.0249435,44 C5.38405799,44 -0.0002,38.615742 -0.0002,31.9748565 L-0.0002,12.0251435 C-0.0002,5.38425799 5.38405799,0 12.0249435,0 L31.9746565,0 C38.615542,0 43.9998,5.38425799 43.9998,12.0251435 L43.9998,31.9748565 C43.9998,38.615742 38.615542,44 31.9746565,44 Z" id="path-1"></path>
    </defs>
    <g id="Page-1" stroke="none" stroke-width="1" fill="none" fill-rule="evenodd">
        <g id="Water-Level-&amp;-Weather" transform="translate(-19.000000, -264.000000)">
            <g id="Low---unselected" transform="translate(20.000000, 265.000000)">
                <g id="Fill-49" transform="translate(0.000200, 0.000000)">
                    <mask id="mask-2" fill="white">
                        <use xlink:href="#path-1"></use>
                    </mask>
                    <g id="Mask"></g>
                    <path d="M44.158,41.3771 C42.477,41.3771 41.642,40.2031 40.906,39.1671 C40.222,38.2071 39.633,37.3771 38.469,37.3771 C37.304,37.3771 36.714,38.2071 36.03,39.1671 C35.294,40.2031 34.458,41.3771 32.778,41.3771 C31.098,41.3771 30.264,40.2031 29.528,39.1671 C28.845,38.2071 28.256,37.3771 27.093,37.3771 C25.93,37.3771 25.342,38.2071 24.659,39.1671 C23.924,40.2031 23.09,41.3771 21.412,41.3771 C19.732,41.3771 18.898,40.2031 18.162,39.1671 C17.479,38.2061 16.89,37.3771 15.727,37.3771 C14.565,37.3771 13.976,38.2061 13.294,39.1661 C12.558,40.2031 11.723,41.3771 10.045,41.3771 C8.366,41.3771 7.532,40.2031 6.797,39.1671 C6.114,38.2071 5.525,37.3771 4.362,37.3771 C3.2,37.3771 2.611,38.2061 1.929,39.1661 C1.193,40.2031 0.358,41.3771 -1.321,41.3771 C-2.998,41.3771 -3.832,40.2031 -4.568,39.1671 C-5.25,38.2061 -5.838,37.3771 -7,37.3771 L-7,36.3771 C-5.322,36.3771 -4.488,37.5511 -3.753,38.5871 C-3.071,39.5481 -2.483,40.3771 -1.321,40.3771 C-0.157,40.3771 0.431,39.5471 1.114,38.5871 C1.849,37.5511 2.683,36.3771 4.362,36.3771 C6.041,36.3771 6.876,37.5511 7.611,38.5881 C8.294,39.5481 8.883,40.3771 10.045,40.3771 C11.208,40.3771 11.797,39.5471 12.479,38.5871 C13.215,37.5511 14.049,36.3771 15.727,36.3771 C17.406,36.3771 18.241,37.5511 18.976,38.5871 C19.659,39.5471 20.249,40.3771 21.412,40.3771 C22.573,40.3771 23.162,39.5481 23.844,38.5881 C24.58,37.5511 25.414,36.3771 27.093,36.3771 C28.772,36.3771 29.606,37.5511 30.343,38.5871 C31.025,39.5471 31.615,40.3771 32.778,40.3771 C33.942,40.3771 34.532,39.5481 35.216,38.5871 C35.952,37.5511 36.788,36.3771 38.469,36.3771 C40.149,36.3771 40.984,37.5511 41.72,38.5871 C42.404,39.5471 42.994,40.3771 44.158,40.3771 L44.158,41.3771 Z" fill="#1E3664" mask="url(#mask-2)"></path>
                </g>
                <path d="M31.9745826,44 L12.0254174,44 C5.3833785,44 0,38.615742 0,31.9748565 L0,12.0251435 C0,5.38425799 5.3833785,0 12.0254174,0 L31.9745826,0 C38.6166215,0 44,5.38425799 44,12.0251435 L44,31.9748565 C44,38.615742 38.6166215,44 31.9745826,44 Z" id="Stroke-3" stroke="#1E3664"></path>
            </g>
        </g>
    </g>
</svg>