<?xml version="1.0" encoding="UTF-8"?>
<svg width="46px" height="46px" viewBox="0 0 46 46" version="1.1" xmlns="http://www.w3.org/2000/svg" xmlns:xlink="http://www.w3.org/1999/xlink">
    <!-- Generator: sketchtool 63.1 (101010) - https://sketch.com -->
    <title>A87F27C1-0BBA-4F3C-A59A-6B42ACFC70D6</title>
    <desc>Created with sketchtool.</desc>
    <defs>
        <path d="M31.9746565,44 L12.0249435,44 C5.38405799,44 -0.0002,38.615742 -0.0002,31.9748565 L-0.0002,12.0251435 C-0.0002,5.38425799 5.38405799,0 12.0249435,0 L31.9746565,0 C38.615542,0 43.9998,5.38425799 43.9998,12.0251435 L43.9998,31.9748565 C43.9998,38.615742 38.615542,44 31.9746565,44 Z" id="path-1"></path>
    </defs>
    <g id="Page-1" stroke="none" stroke-width="1" fill="none" fill-rule="evenodd">
        <g id="Water-Level-&amp;-Weather" transform="translate(-96.000000, -264.000000)">
            <g id="Normal---unselected" transform="translate(97.000000, 265.000000)">
                <g id="Fill-49" transform="translate(0.000200, 0.000000)">
                    <mask id="mask-2" fill="white">
                        <use xlink:href="#path-1"></use>
                    </mask>
                    <g id="Mask"></g>
                    <path d="M44.158,41.5 C42.477,41.5 41.642,40.326 40.906,39.29 C40.222,38.33 39.633,37.5 38.469,37.5 C37.304,37.5 36.714,38.33 36.03,39.29 C35.294,40.326 34.458,41.5 32.778,41.5 C31.098,41.5 30.264,40.326 29.528,39.29 C28.845,38.33 28.256,37.5 27.093,37.5 C25.93,37.5 25.342,38.33 24.659,39.29 C23.924,40.326 23.09,41.5 21.412,41.5 C19.732,41.5 18.898,40.326 18.162,39.29 C17.479,38.329 16.89,37.5 15.727,37.5 C14.565,37.5 13.976,38.329 13.294,39.289 C12.558,40.326 11.723,41.5 10.045,41.5 C8.366,41.5 7.532,40.326 6.797,39.29 C6.114,38.33 5.525,37.5 4.362,37.5 C3.2,37.5 2.611,38.329 1.929,39.289 C1.193,40.326 0.358,41.5 -1.321,41.5 C-2.998,41.5 -3.832,40.326 -4.568,39.29 C-5.25,38.329 -5.838,37.5 -7,37.5 L-7,36.5 C-5.322,36.5 -4.488,37.674 -3.753,38.71 C-3.071,39.671 -2.483,40.5 -1.321,40.5 C-0.157,40.5 0.431,39.67 1.114,38.71 C1.849,37.674 2.683,36.5 4.362,36.5 C6.041,36.5 6.876,37.674 7.611,38.711 C8.294,39.671 8.883,40.5 10.045,40.5 C11.208,40.5 11.797,39.67 12.479,38.71 C13.215,37.674 14.049,36.5 15.727,36.5 C17.406,36.5 18.241,37.674 18.976,38.71 C19.659,39.67 20.249,40.5 21.412,40.5 C22.573,40.5 23.162,39.671 23.844,38.711 C24.58,37.674 25.414,36.5 27.093,36.5 C28.772,36.5 29.606,37.674 30.343,38.71 C31.025,39.67 31.615,40.5 32.778,40.5 C33.942,40.5 34.532,39.671 35.216,38.71 C35.952,37.674 36.788,36.5 38.469,36.5 C40.149,36.5 40.984,37.674 41.72,38.71 C42.404,39.67 42.994,40.5 44.158,40.5 L44.158,41.5 Z" fill="#1E3664" mask="url(#mask-2)"></path>
                    <path d="M44.1578,36 C42.4768,36 41.6418,34.826 40.9058,33.79 C40.2218,32.83 39.6328,32 38.4688,32 C37.3038,32 36.7138,32.83 36.0298,33.79 C35.2938,34.826 34.4578,36 32.7778,36 C31.0978,36 30.2638,34.826 29.5278,33.79 C28.8448,32.83 28.2558,32 27.0928,32 C25.9298,32 25.3418,32.83 24.6588,33.79 C23.9238,34.826 23.0898,36 21.4118,36 C19.7318,36 18.8978,34.826 18.1618,33.79 C17.4788,32.829 16.8898,32 15.7268,32 C14.5648,32 13.9758,32.829 13.2938,33.789 C12.5578,34.826 11.7228,36 10.0448,36 C8.3658,36 7.5318,34.826 6.7968,33.79 C6.1138,32.83 5.5248,32 4.3618,32 C3.1998,32 2.6108,32.829 1.9288,33.789 C1.1928,34.826 0.3578,36 -1.3212,36 C-2.9982,36 -3.8322,34.826 -4.5682,33.79 C-5.2502,32.829 -5.8382,32 -7.0002,32 L-7.0002,31 C-5.3222,31 -4.4882,32.174 -3.7532,33.21 C-3.0712,34.171 -2.4832,35 -1.3212,35 C-0.1572,35 0.4308,34.17 1.1138,33.21 C1.8488,32.174 2.6828,31 4.3618,31 C6.0408,31 6.8758,32.174 7.6108,33.211 C8.2938,34.171 8.8828,35 10.0448,35 C11.2078,35 11.7968,34.17 12.4788,33.21 C13.2148,32.174 14.0488,31 15.7268,31 C17.4058,31 18.2408,32.174 18.9758,33.21 C19.6588,34.17 20.2488,35 21.4118,35 C22.5728,35 23.1618,34.171 23.8438,33.211 C24.5798,32.174 25.4138,31 27.0928,31 C28.7718,31 29.6058,32.174 30.3428,33.21 C31.0248,34.17 31.6148,35 32.7778,35 C33.9418,35 34.5318,34.171 35.2158,33.21 C35.9518,32.174 36.7878,31 38.4688,31 C40.1488,31 40.9838,32.174 41.7198,33.21 C42.4038,34.17 42.9938,35 44.1578,35 L44.1578,36 Z" id="Fill-49-Copy" fill="#1E3664" mask="url(#mask-2)"></path>
                </g>
                <path d="M31.9745826,44 L12.0254174,44 C5.3833785,44 0,38.615742 0,31.9748565 L0,12.0251435 C0,5.38425799 5.3833785,0 12.0254174,0 L31.9745826,0 C38.6166215,0 44,5.38425799 44,12.0251435 L44,31.9748565 C44,38.615742 38.6166215,44 31.9745826,44 Z" id="Stroke-3" stroke="#1E3664"></path>
            </g>
        </g>
    </g>
</svg>