<?xml version="1.0" encoding="UTF-8"?>
<svg width="45px" height="45px" viewBox="0 0 45 45" version="1.1" xmlns="http://www.w3.org/2000/svg" xmlns:xlink="http://www.w3.org/1999/xlink">
    <!-- Generator: sketchtool 63.1 (101010) - https://sketch.com -->
    <title>25A0F9B4-1390-4DE6-AC14-AE7E5AE8CDAA</title>
    <desc>Created with sketchtool.</desc>
    <defs>
        <path d="M12.861,0.592 C6.234,0.592 0.862,5.965 0.862,12.592 L0.862,12.592 L0.862,32.5 C0.862,39.128 6.234,44.501 12.861,44.501 L12.861,44.501 L32.768,44.501 C39.397,44.501 44.769,39.128 44.769,32.5 L44.769,32.5 L44.769,12.592 C44.769,5.965 39.397,0.592 32.768,0.592 L32.768,0.592 L12.861,0.592 Z" id="path-1"></path>
    </defs>
    <g id="Page-1" stroke="none" stroke-width="1" fill="none" fill-rule="evenodd">
        <g id="Water-Level-&amp;-Weather-(1)" transform="translate(-97.000000, -265.000000)">
            <g id="Normal---selected" transform="translate(97.000000, 265.000000)">
                <path d="M32.7686,44.5002 L12.8616,44.5002 C6.2336,44.5002 0.8616,39.1272 0.8616,32.5002 L0.8616,12.5922 C0.8616,5.9652 6.2336,0.5922 12.8616,0.5922 L32.7686,0.5922 C39.3966,0.5922 44.7686,5.9652 44.7686,12.5922 L44.7686,32.5002 C44.7686,39.1272 39.3966,44.5002 32.7686,44.5002 Z" id="Stroke-3" fill="#1E3664"></path>
                <mask id="mask-2" fill="white">
                    <use xlink:href="#path-1"></use>
                </mask>
                <g id="Clip-14"></g>
                <path d="M45.3936,42.3771 C43.7126,42.3771 42.8776,41.2031 42.1416,40.1671 C41.4576,39.2071 40.8686,38.3771 39.7046,38.3771 C38.5396,38.3771 37.9506,39.2071 37.2666,40.1671 C36.5306,41.2031 35.6956,42.3771 34.0146,42.3771 C32.3346,42.3771 31.4996,41.2031 30.7636,40.1671 C30.0806,39.2061 29.4916,38.3771 28.3286,38.3771 C27.1666,38.3771 26.5786,39.2061 25.8966,40.1661 C25.1606,41.2031 24.3266,42.3771 22.6476,42.3771 C20.9686,42.3771 20.1336,41.2031 19.3986,40.1671 C18.7156,39.2071 18.1256,38.3771 16.9626,38.3771 C15.8006,38.3771 15.2116,39.2061 14.5296,40.1661 C13.7936,41.2031 12.9586,42.3771 11.2806,42.3771 C9.6016,42.3771 8.7676,41.2031 8.0326,40.1671 C7.3496,39.2061 6.7606,38.3771 5.5986,38.3771 C4.4356,38.3771 3.8466,39.2071 3.1646,40.1671 C2.4286,41.2031 1.5946,42.3771 -0.0844,42.3771 C-1.7614,42.3771 -2.5954,41.2031 -3.3314,40.1671 C-4.0134,39.2071 -4.6024,38.3771 -5.7644,38.3771 L-5.7644,37.3771 C-4.0854,37.3771 -3.2524,38.5511 -2.5154,39.5881 C-1.8344,40.5481 -1.2454,41.3771 -0.0844,41.3771 C1.0786,41.3771 1.6666,40.5481 2.3496,39.5881 C3.0846,38.5511 3.9196,37.3771 5.5986,37.3771 C7.2776,37.3771 8.1116,38.5511 8.8466,39.5871 C9.5296,40.5481 10.1186,41.3771 11.2806,41.3771 C12.4436,41.3771 13.0326,40.5471 13.7146,39.5871 C14.4506,38.5511 15.2846,37.3771 16.9626,37.3771 C18.6426,37.3771 19.4766,38.5511 20.2126,39.5871 C20.8956,40.5481 21.4846,41.3771 22.6476,41.3771 C23.8096,41.3771 24.3986,40.5471 25.0816,39.5871 C25.8166,38.5511 26.6506,37.3771 28.3286,37.3771 C30.0076,37.3771 30.8416,38.5511 31.5786,39.5871 C32.2606,40.5471 32.8506,41.3771 34.0146,41.3771 C35.1786,41.3771 35.7686,40.5471 36.4526,39.5871 C37.1886,38.5511 38.0236,37.3771 39.7046,37.3771 C41.3846,37.3771 42.2196,38.5511 42.9556,39.5871 C43.6396,40.5471 44.2296,41.3771 45.3936,41.3771 L45.3936,42.3771 Z" id="Fill-10" fill="#FFFFFF" mask="url(#mask-2)"></path>
                <path d="M45.3936,37.1564 C43.7126,37.1564 42.8776,35.9824 42.1416,34.9464 C41.4576,33.9864 40.8686,33.1564 39.7046,33.1564 C38.5396,33.1564 37.9506,33.9864 37.2666,34.9464 C36.5306,35.9824 35.6956,37.1564 34.0146,37.1564 C32.3346,37.1564 31.4996,35.9824 30.7636,34.9464 C30.0806,33.9854 29.4916,33.1564 28.3286,33.1564 C27.1666,33.1564 26.5786,33.9854 25.8966,34.9454 C25.1606,35.9824 24.3266,37.1564 22.6476,37.1564 C20.9686,37.1564 20.1336,35.9824 19.3986,34.9464 C18.7156,33.9864 18.1256,33.1564 16.9626,33.1564 C15.8006,33.1564 15.2116,33.9854 14.5296,34.9454 C13.7936,35.9824 12.9586,37.1564 11.2806,37.1564 C9.6016,37.1564 8.7676,35.9824 8.0326,34.9464 C7.3496,33.9854 6.7606,33.1564 5.5986,33.1564 C4.4356,33.1564 3.8466,33.9864 3.1646,34.9464 C2.4286,35.9824 1.5946,37.1564 -0.0844,37.1564 C-1.7614,37.1564 -2.5954,35.9824 -3.3314,34.9464 C-4.0134,33.9864 -4.6024,33.1564 -5.7644,33.1564 L-5.7644,32.1564 C-4.0854,32.1564 -3.2524,33.3304 -2.5154,34.3674 C-1.8344,35.3274 -1.2454,36.1564 -0.0844,36.1564 C1.0786,36.1564 1.6666,35.3274 2.3496,34.3674 C3.0846,33.3304 3.9196,32.1564 5.5986,32.1564 C7.2776,32.1564 8.1116,33.3304 8.8466,34.3664 C9.5296,35.3274 10.1186,36.1564 11.2806,36.1564 C12.4436,36.1564 13.0326,35.3264 13.7146,34.3664 C14.4506,33.3304 15.2846,32.1564 16.9626,32.1564 C18.6426,32.1564 19.4766,33.3304 20.2126,34.3664 C20.8956,35.3274 21.4846,36.1564 22.6476,36.1564 C23.8096,36.1564 24.3986,35.3264 25.0816,34.3664 C25.8166,33.3304 26.6506,32.1564 28.3286,32.1564 C30.0076,32.1564 30.8416,33.3304 31.5786,34.3664 C32.2606,35.3264 32.8506,36.1564 34.0146,36.1564 C35.1786,36.1564 35.7686,35.3264 36.4526,34.3664 C37.1886,33.3304 38.0236,32.1564 39.7046,32.1564 C41.3846,32.1564 42.2196,33.3304 42.9556,34.3664 C43.6396,35.3264 44.2296,36.1564 45.3936,36.1564 L45.3936,37.1564 Z" id="Fill-13" fill="#FFFFFF" mask="url(#mask-2)"></path>
            </g>
        </g>
    </g>
</svg>