<?xml version="1.0" encoding="UTF-8"?>
<svg width="46px" height="46px" viewBox="0 0 46 46" version="1.1" xmlns="http://www.w3.org/2000/svg" xmlns:xlink="http://www.w3.org/1999/xlink">
    <!-- Generator: sketchtool 63.1 (101010) - https://sketch.com -->
    <title>19E01130-3288-4A3F-94C7-15DD4E15DADF</title>
    <desc>Created with sketchtool.</desc>
    <g id="Page-1" stroke="none" stroke-width="1" fill="none" fill-rule="evenodd">
        <g id="Water-Level-&amp;-Weather" transform="translate(-78.000000, -393.000000)">
            <g id="PartlyCloudy---unselected" transform="translate(79.000000, 394.000000)">
                <path d="M31.907,43.908 L12,43.908 C5.372,43.908 -7.10542736e-15,38.535 -7.10542736e-15,31.908 L-7.10542736e-15,12 C-7.10542736e-15,5.373 5.372,-4.97379915e-14 12,-4.97379915e-14 L31.907,-4.97379915e-14 C38.535,-4.97379915e-14 43.907,5.373 43.907,12 L43.907,31.908 C43.907,38.535 38.535,43.908 31.907,43.908 Z" id="Stroke-3" stroke="#1E3664"></path>
                <path d="M11.4031,20.6863 C11.4031,18.3043 13.3351,16.3733 15.7161,16.3733 C18.0981,16.3733 20.0291,18.3043 20.0291,20.6863 C20.0291,23.0683 18.0981,24.9993 15.7161,24.9993 C13.3351,24.9993 11.4031,23.0683 11.4031,20.6863 Z" id="Stroke-29" stroke="#1E3664" stroke-linecap="round"></path>
                <line x1="15.7166" y1="14.3733" x2="15.7166" y2="11.4283" id="Stroke-31" stroke="#1E3664" stroke-linecap="round"></line>
                <line x1="15.7166" y1="29.9441" x2="15.7166" y2="26.9991" id="Stroke-33" stroke="#1E3664" stroke-linecap="round"></line>
                <line x1="9.4031" y1="20.6863" x2="6.4591" y2="20.6863" id="Stroke-35" stroke="#1E3664" stroke-linecap="round"></line>
                <line x1="24.9744" y1="20.6863" x2="22.0294" y2="20.6863" id="Stroke-37" stroke="#1E3664" stroke-linecap="round"></line>
                <line x1="11.2527" y1="16.2224" x2="9.1697" y2="14.1394" id="Stroke-39" stroke="#1E3664" stroke-linecap="round"></line>
                <line x1="22.2625" y1="27.2327" x2="20.1805" y2="25.1497" id="Stroke-41" stroke="#1E3664" stroke-linecap="round"></line>
                <line x1="11.2527" y1="25.1501" x2="9.1697" y2="27.2331" id="Stroke-43" stroke="#1E3664" stroke-linecap="round"></line>
                <line x1="22.2625" y1="14.1399" x2="20.1805" y2="16.2229" id="Stroke-45" stroke="#1E3664" stroke-linecap="round"></line>
                <path d="M37.448,26.3791 C37.448,29.0791 35.267,31.2691 32.568,31.2691 C31.148,31.2691 29.868,30.6591 28.978,29.6891 C27.758,31.3791 25.758,32.4791 23.508,32.4791 C21.597,32.4791 19.868,31.6891 18.637,30.4091 C17.968,30.9391 17.118,31.2691 16.198,31.2691 C14.088,31.2691 12.368,29.5491 12.368,27.4391 C12.368,25.3191 14.088,23.5991 16.198,23.5991 C16.488,23.5991 16.767,23.6291 17.038,23.6991 C17.898,20.9391 20.468,18.9391 23.508,18.9391 C26.118,18.9391 28.387,20.4191 29.508,22.5791 C30.347,21.8991 31.408,21.4891 32.568,21.4891 C35.267,21.4891 37.448,23.6791 37.448,26.3791" id="Fill-47" fill="#FFFFFF"></path>
                <path d="M37.448,26.3791 C37.448,29.0791 35.267,31.2691 32.568,31.2691 C31.148,31.2691 29.868,30.6591 28.978,29.6891 C27.758,31.3791 25.758,32.4791 23.508,32.4791 C21.597,32.4791 19.868,31.6891 18.637,30.4091 C17.968,30.9391 17.118,31.2691 16.198,31.2691 C14.088,31.2691 12.368,29.5491 12.368,27.4391 C12.368,25.3191 14.088,23.5991 16.198,23.5991 C16.488,23.5991 16.767,23.6291 17.038,23.6991 C17.898,20.9391 20.468,18.9391 23.508,18.9391 C26.118,18.9391 28.387,20.4191 29.508,22.5791 C30.347,21.8991 31.408,21.4891 32.568,21.4891 C35.267,21.4891 37.448,23.6791 37.448,26.3791 Z" id="Stroke-49" stroke="#1E3664"></path>
            </g>
        </g>
    </g>
</svg>