<?xml version="1.0" encoding="UTF-8"?>
<svg width="44px" height="44px" viewBox="0 0 44 44" version="1.1" xmlns="http://www.w3.org/2000/svg" xmlns:xlink="http://www.w3.org/1999/xlink">
    <!-- Generator: sketchtool 63.1 (101010) - https://sketch.com -->
    <title>6492D2E5-233A-49B8-9E6B-8F0449334276</title>
    <desc>Created with sketchtool.</desc>
    <g id="Page-1" stroke="none" stroke-width="1" fill="none" fill-rule="evenodd">
        <g id="Water-Level-&amp;-Weather-(1)" transform="translate(-79.000000, -395.000000)">
            <g id="PartlyCloudy--Selected" transform="translate(79.000000, 395.000000)">
                <path d="M31.9745826,44 L12.0254174,44 C5.3833785,44 0,38.615742 0,31.9748565 L0,12.0251435 C0,5.38425799 5.3833785,0 12.0254174,0 L31.9745826,0 C38.6166215,0 44,5.38425799 44,12.0251435 L44,31.9748565 C44,38.615742 38.6166215,44 31.9745826,44 Z" id="Stroke-3" fill="#1E3664"></path>
                <path d="M12,20.5 C12,18.0147229 14.0157663,16 16.5,16 C18.9852771,16 21,18.0147229 21,20.5 C21,22.9852771 18.9852771,25 16.5,25 C14.0157663,25 12,22.9852771 12,20.5 Z" id="Stroke-29" stroke="#FFFFFF" stroke-linecap="round"></path>
                <line x1="16.5" y1="14" x2="16.5" y2="11" id="Stroke-31" stroke="#FFFFFF" stroke-linecap="round"></line>
                <line x1="16.5" y1="30" x2="16.5" y2="27" id="Stroke-33" stroke="#FFFFFF" stroke-linecap="round"></line>
                <line x1="10" y1="20.5" x2="7" y2="20.5" id="Stroke-35" stroke="#FFFFFF" stroke-linecap="round"></line>
                <line x1="26" y1="20.5" x2="23" y2="20.5" id="Stroke-37" stroke="#FFFFFF" stroke-linecap="round"></line>
                <line x1="12" y1="16" x2="10" y2="14" id="Stroke-39" stroke="#FFFFFF" stroke-linecap="round"></line>
                <line x1="23" y1="27" x2="21" y2="25" id="Stroke-41" stroke="#FFFFFF" stroke-linecap="round"></line>
                <line x1="12" y1="25" x2="10" y2="27" id="Stroke-43" stroke="#FFFFFF" stroke-linecap="round"></line>
                <line x1="23" y1="14" x2="21" y2="16" id="Stroke-45" stroke="#FFFFFF" stroke-linecap="round"></line>
                <path d="M38,26.6927622 C38,29.4844904 35.8259569,31.7488922 33.1355662,31.7488922 C31.7200957,31.7488922 30.4441786,31.1181684 29.5570175,30.1152142 C28.3409091,31.8626292 26.3472887,33 24.1044657,33 C22.1995614,33 20.4760766,32.183161 19.2490032,30.859675 C18.5821372,31.4076809 17.7348485,31.7488922 16.8177831,31.7488922 C14.7145136,31.7488922 13,29.9704579 13,27.788774 C13,25.5967504 14.7145136,23.8183161 16.8177831,23.8183161 C17.1068581,23.8183161 17.3849681,23.8493353 17.6551037,23.9217134 C18.5123604,21.0679468 21.0741627,19 24.1044657,19 C26.7061404,19 28.9679027,20.5302806 30.085327,22.7636632 C30.9216507,22.0605613 31.9792663,21.6366322 33.1355662,21.6366322 C35.8259569,21.6366322 38,23.901034 38,26.6927622" id="Fill-47" fill="#FFFFFF"></path>
                <path d="M38,26.6927622 C38,29.4844904 35.8259569,31.7488922 33.1355662,31.7488922 C31.7200957,31.7488922 30.4441786,31.1181684 29.5570175,30.1152142 C28.3409091,31.8626292 26.3472887,33 24.1044657,33 C22.1995614,33 20.4760766,32.183161 19.2490032,30.859675 C18.5821372,31.4076809 17.7348485,31.7488922 16.8177831,31.7488922 C14.7145136,31.7488922 13,29.9704579 13,27.788774 C13,25.5967504 14.7145136,23.8183161 16.8177831,23.8183161 C17.1068581,23.8183161 17.3849681,23.8493353 17.6551037,23.9217134 C18.5123604,21.0679468 21.0741627,19 24.1044657,19 C26.7061404,19 28.9679027,20.5302806 30.085327,22.7636632 C30.9216507,22.0605613 31.9792663,21.6366322 33.1355662,21.6366322 C35.8259569,21.6366322 38,23.901034 38,26.6927622 Z" id="Stroke-49" stroke="#1E3664"></path>
            </g>
        </g>
    </g>
</svg>